<?xml version="1.0" standalone="no"?><!DOCTYPE svg PUBLIC "-//W3C//DTD SVG 1.1//EN" "http://www.w3.org/Graphics/SVG/1.1/DTD/svg11.dtd"><svg t="1620624545566" class="icon" viewBox="0 0 1024 1024" version="1.1" xmlns="http://www.w3.org/2000/svg" p-id="1204" xmlns:xlink="http://www.w3.org/1999/xlink" width="200" height="200"><defs><style type="text/css"></style></defs><path d="M511.993 511.831m-511.831 0a511.831 511.831 0 1 0 1023.662 0 511.831 511.831 0 1 0-1023.662 0Z" fill="#FFD630" p-id="1205"></path><path d="M1023.836 502.938982l-204.6684-203.680398-2.968006 142.378279-133.480261-134.140262-227.406444 209.614409-222.794435-222.796435 0.658001 17.140033-17.138033-17.140033 0.658001 14.172028-14.172027-14.172028 0.658001 17.798035-17.138034-17.140034-6.590013 83.712164-1.976003 14.830029 30.320059 26.03605 0.330001 312.11061 7.250014 6.262012-0.330001 0.330001 285.744558 285.744558h11.206022c282.778552 0 511.835-229.056447 511.835-511.835l0.002-9.224018z" fill="#F5BE18" p-id="1206"></path><path d="M804.667572 295.632577l2.966005 215.544421v1.976004h-5.27401c-1.976004 0-3.296006 1.318003-3.296006 2.968006 0 1.648003 1.648003 2.966006 3.296006 2.966006h4.94401l-8.898018 183.246358s-1.318003 19.774039 23.070045 25.048049c0 0 18.128035-4.614009 21.092042-23.400046 2.638005-16.478032-7.582015-152.926299-9.88802-184.894361h6.920014c1.976004 0 3.296006-1.318003 3.296006-2.966006 0-1.648003-1.648003-2.968006-3.296006-2.968006h-7.250014v-1.318002s-3.626007-16.808033 21.422042-24.718049c0 0-12.854025-135.456265-22.742045-166.106324s-25.37805-32.300063-26.036051-25.37805h-0.326z" fill="#FFFFFF" p-id="1207"></path><path d="M807.633577 513.155002h-5.27401c-1.976004 0-3.296006 1.318003-3.296006 2.968006 0 1.648003 1.648003 2.966006 3.296006 2.966006h4.94401l-8.898018 183.246358s-1.318003 19.774039 23.070045 25.048049c0 0 18.128035-4.614009 21.092042-23.400046 2.638005-16.478032-7.582015-152.926299-9.88802-184.894361h6.920014c1.976004 0 3.296006-1.318003 3.296006-2.966006 0-1.648003-1.648003-2.968006-3.296006-2.968006h-31.966063z" fill="#E84F4F" p-id="1208"></path><path d="M216.368423 294.314575s4.614009 73.496144 4.614009 89.314174h9.228018l-0.988002-88.326172s0.988002-3.296006 3.296006-0.658002c0 0 11.864023 81.076158 11.864023 91.294179 0 0 1.976004 20.104039-0.658001 27.356053-2.638005 7.250014-27.686054 23.400046-27.686054 29.332058l-0.988002 42.516083c5.27401 1.648003 8.898017 5.602011 8.898017 9.558018 0 4.284008-2.966006 7.582015-8.570016 9.558019l8.240016 14.830029s4.614009 146.992287 7.250014 173.688339c-5.602011 28.344055-18.786037 39.550077-21.752043 39.550077-6.590013-0.330001-19.446038-21.092041-21.752042-37.902074l8.570017-174.676341 7.250014-14.830029s-0.988002-0.330001-2.306005-0.988002c-3.956008-1.976004-6.590013-5.27401-6.590013-8.898017 0-3.956008 3.296006-7.582015 7.910016-9.228018 0-2.966006-0.658001-41.858082-0.988002-42.516083-1.648003-9.558019-23.070045-20.104039-27.356053-26.366052-4.284008-6.590013-1.976004-30.65006-1.976004-30.65006 0-9.888019 11.864023-91.294178 11.864023-91.294178 2.306005-2.638005 3.296006 0.658001 3.296006 0.658001l-0.988002 88.986174h8.240016c0-15.16003 6.262012-89.644175 6.262013-89.644175 2.306005-2.638005 3.296006 0 3.296006 0l3.956008 89.314175h4.284008l1.976004-89.314175s1.318003-2.638005 3.296007 0l-0.992002-0.664001z" fill="#FFFFFF" p-id="1209"></path><path d="M215.380421 503.926984l7.910015 14.502029s4.614009 146.992287 7.250014 173.688339c-5.602011 28.344055-18.786037 39.550077-21.752042 39.550077-6.590013-0.330001-19.446038-21.092041-21.752043-37.902074l8.570017-174.676341 7.250014-14.830029h12.524025v-0.332001z" fill="#E84F4F" p-id="1210"></path><path d="M516.615009 511.831m-263.668515 0a263.668515 263.668515 0 1 0 527.33703 0 263.668515 263.668515 0 1 0-527.33703 0Z" fill="#FF873D" p-id="1211"></path><path d="M516.615009 511.831m-250.144489 0a250.144489 250.144489 0 1 0 500.288978 0 250.144489 250.144489 0 1 0-500.288978 0Z" fill="#FFFFFF" p-id="1212"></path><path d="M516.615009 511.831m-196.100383 0a196.100383 196.100383 0 1 0 392.200766 0 196.100383 196.100383 0 1 0-392.200766 0Z" fill="#FFE8D1" p-id="1213"></path></svg>